<mxfile host="app.diagrams.net" agent="Mozilla/5.0 (Windows NT 10.0; Win64; x64; rv:138.0) Gecko/20100101 Firefox/138.0" version="27.0.1">
  <diagram name="Страница — 1" id="D8cMs2m45Besud4g5t6a">
    <mxGraphModel dx="986" dy="610" grid="1" gridSize="10" guides="1" tooltips="1" connect="1" arrows="1" fold="1" page="1" pageScale="1" pageWidth="827" pageHeight="1169" math="0" shadow="0">
      <root>
        <mxCell id="0" />
        <mxCell id="1" parent="0" />
        <mxCell id="N2MT0N8GJBg1cZ225BkV-1" value="&lt;div style=&quot;&quot;&gt;Server&lt;/div&gt;" style="verticalAlign=top;align=center;spacingTop=8;spacingLeft=2;spacingRight=12;shape=cube;size=10;direction=south;fontStyle=4;html=1;whiteSpace=wrap;fontFamily=Times New Roman;fontSize=14;" vertex="1" parent="1">
          <mxGeometry x="60" y="50" width="642" height="481" as="geometry" />
        </mxCell>
        <mxCell id="N2MT0N8GJBg1cZ225BkV-2" value="&lt;div style=&quot;&quot;&gt;&lt;div style=&quot;text-align: start;&quot;&gt;&lt;font face=&quot;Times New Roman&quot; style=&quot;color: rgb(0, 0, 0); font-size: 13px;&quot;&gt;Chromium Browser&lt;br&gt;v133.0.6943.141&lt;/font&gt;&lt;br&gt;&lt;/div&gt;&lt;div&gt;&lt;/div&gt;&lt;/div&gt;" style="verticalAlign=top;align=center;spacingTop=8;spacingLeft=2;spacingRight=12;shape=cube;size=10;direction=south;fontStyle=4;html=1;whiteSpace=wrap;fontFamily=Times New Roman;fontSize=14;" vertex="1" parent="1">
          <mxGeometry x="860" y="74.25" width="146" height="159" as="geometry" />
        </mxCell>
        <mxCell id="N2MT0N8GJBg1cZ225BkV-3" value="&lt;div style=&quot;&quot;&gt;Application Server&lt;/div&gt;" style="verticalAlign=top;align=center;spacingTop=8;spacingLeft=2;spacingRight=12;shape=cube;size=10;direction=south;fontStyle=4;html=1;whiteSpace=wrap;fontFamily=Times New Roman;fontSize=14;" vertex="1" parent="1">
          <mxGeometry x="73" y="83.5" width="183" height="177" as="geometry" />
        </mxCell>
        <mxCell id="N2MT0N8GJBg1cZ225BkV-4" value="&lt;font face=&quot;Times New Roman&quot;&gt;NodeJS 18.9.1&amp;nbsp;&lt;/font&gt;&lt;div style=&quot;&quot;&gt;&lt;font face=&quot;Times New Roman&quot;&gt;ExpressJS&amp;nbsp;&lt;span style=&quot;white-space: pre;&quot;&gt;&lt;font style=&quot;color: rgb(0, 0, 0);&quot;&gt;4.21.2&lt;/font&gt;&lt;/span&gt;&lt;/font&gt;&lt;div style=&quot;&quot;&gt;&lt;font face=&quot;Times New Roman&quot;&gt;socket.io 4.8.1&lt;/font&gt;&lt;/div&gt;&lt;div style=&quot;&quot;&gt;&lt;div style=&quot;line-height: 19px; white-space: pre;&quot;&gt;&lt;span&gt;&lt;font face=&quot;Times New Roman&quot; style=&quot;color: rgb(0, 0, 0);&quot;&gt;typeORM ORM &lt;/font&gt;&lt;/span&gt;&lt;span style=&quot;color: light-dark(rgb(0, 0, 0), rgb(237, 237, 237)); background-color: transparent;&quot;&gt;6.37.6&lt;/span&gt;&lt;/div&gt;&lt;div style=&quot;line-height: 19px; white-space: pre;&quot;&gt;&lt;div style=&quot;line-height: 19px;&quot;&gt;&lt;br&gt;&lt;/div&gt;&lt;/div&gt;&lt;/div&gt;&lt;/div&gt;" style="shape=module;align=left;spacingLeft=20;align=center;verticalAlign=top;whiteSpace=wrap;html=1;fontFamily=Times New Roman;fontSize=14;" vertex="1" parent="1">
          <mxGeometry x="90" y="133" width="149" height="107" as="geometry" />
        </mxCell>
        <mxCell id="N2MT0N8GJBg1cZ225BkV-5" value="ReactJS 19.0.0&lt;div&gt;Axios 1.8.1&lt;/div&gt;" style="shape=module;align=left;spacingLeft=20;align=center;verticalAlign=top;whiteSpace=wrap;html=1;fontFamily=Times New Roman;fontSize=14;" vertex="1" parent="1">
          <mxGeometry x="870" y="133" width="116" height="59" as="geometry" />
        </mxCell>
        <UserObject label="" link="Node.js v18.17.1" id="N2MT0N8GJBg1cZ225BkV-6">
          <mxCell style="verticalAlign=top;align=left;spacingTop=8;spacingLeft=2;spacingRight=12;shape=cube;size=10;direction=south;fontStyle=4;html=1;whiteSpace=wrap;" vertex="1" parent="1">
            <mxGeometry x="70" y="361" width="194" height="141" as="geometry" />
          </mxCell>
        </UserObject>
        <mxCell id="N2MT0N8GJBg1cZ225BkV-7" value="&lt;div&gt;&lt;font style=&quot;font-size: 14px;&quot; face=&quot;Times New Roman&quot;&gt;&lt;br&gt;&lt;/font&gt;&lt;/div&gt;&lt;div&gt;&lt;div&gt;&lt;font face=&quot;Times New Roman&quot; style=&quot;font-size: 14px;&quot;&gt;Database Server&lt;/font&gt;&lt;/div&gt;&lt;/div&gt;" style="text;html=1;align=center;verticalAlign=middle;whiteSpace=wrap;rounded=0;" vertex="1" parent="1">
          <mxGeometry x="60" y="367" width="204" height="34.5" as="geometry" />
        </mxCell>
        <mxCell id="N2MT0N8GJBg1cZ225BkV-8" value="&lt;font style=&quot;font-size: 14px;&quot; face=&quot;Times New Roman&quot;&gt;PostgreSQL 17.2&lt;/font&gt;" style="shape=cylinder3;whiteSpace=wrap;html=1;boundedLbl=1;backgroundOutline=1;size=15;" vertex="1" parent="1">
          <mxGeometry x="87" y="414.63" width="152" height="80" as="geometry" />
        </mxCell>
        <mxCell id="N2MT0N8GJBg1cZ225BkV-9" value="" style="endArrow=classic;startArrow=classic;html=1;rounded=0;" edge="1" parent="1">
          <mxGeometry width="50" height="50" relative="1" as="geometry">
            <mxPoint x="160" y="260.5" as="sourcePoint" />
            <mxPoint x="160" y="360.5" as="targetPoint" />
          </mxGeometry>
        </mxCell>
        <mxCell id="N2MT0N8GJBg1cZ225BkV-10" value="" style="endArrow=classic;startArrow=classic;html=1;rounded=0;exitX=0.522;exitY=0.023;exitDx=0;exitDy=0;exitPerimeter=0;entryX=0.46;entryY=0.995;entryDx=0;entryDy=0;entryPerimeter=0;labelBackgroundColor=default;" edge="1" parent="1">
          <mxGeometry width="50" height="50" relative="1" as="geometry">
            <mxPoint x="256" y="137.8" as="sourcePoint" />
            <mxPoint x="466" y="137.8" as="targetPoint" />
          </mxGeometry>
        </mxCell>
        <mxCell id="N2MT0N8GJBg1cZ225BkV-11" value="&lt;font style=&quot;font-size: 14px;&quot; face=&quot;Times New Roman&quot;&gt;WebSocket 13&lt;/font&gt;" style="text;html=1;align=center;verticalAlign=middle;whiteSpace=wrap;rounded=0;labelBackgroundColor=default;labelBorderColor=none;" vertex="1" parent="1">
          <mxGeometry x="304" y="123" width="103" height="30" as="geometry" />
        </mxCell>
        <mxCell id="N2MT0N8GJBg1cZ225BkV-12" value="" style="endArrow=classic;startArrow=classic;html=1;rounded=0;exitX=0.522;exitY=0.023;exitDx=0;exitDy=0;exitPerimeter=0;entryX=0.46;entryY=0.995;entryDx=0;entryDy=0;entryPerimeter=0;labelBackgroundColor=default;" edge="1" parent="1">
          <mxGeometry width="50" height="50" relative="1" as="geometry">
            <mxPoint x="256" y="186.3" as="sourcePoint" />
            <mxPoint x="466" y="186.3" as="targetPoint" />
          </mxGeometry>
        </mxCell>
        <mxCell id="N2MT0N8GJBg1cZ225BkV-13" value="&lt;font style=&quot;font-size: 14px;&quot; face=&quot;Times New Roman&quot;&gt;HTTP 1.1&lt;/font&gt;" style="text;html=1;align=center;verticalAlign=middle;whiteSpace=wrap;rounded=0;labelBackgroundColor=default;labelBorderColor=none;" vertex="1" parent="1">
          <mxGeometry x="304" y="171.5" width="103" height="30" as="geometry" />
        </mxCell>
        <mxCell id="N2MT0N8GJBg1cZ225BkV-14" value="&lt;font style=&quot;font-size: 14px;&quot; face=&quot;Times New Roman&quot;&gt;TCP/IP&lt;/font&gt;" style="text;html=1;align=center;verticalAlign=middle;whiteSpace=wrap;rounded=0;labelBackgroundColor=default;labelBorderColor=none;" vertex="1" parent="1">
          <mxGeometry x="100" y="287" width="103" height="30" as="geometry" />
        </mxCell>
        <mxCell id="N2MT0N8GJBg1cZ225BkV-15" value="&lt;span style=&quot;white-space: pre;&quot;&gt;&#x9;&lt;/span&gt;&lt;span style=&quot;white-space: pre;&quot;&gt;&#x9;&lt;/span&gt;Web server" style="verticalAlign=top;align=left;spacingTop=8;spacingLeft=2;spacingRight=12;shape=cube;size=10;direction=south;fontStyle=4;html=1;whiteSpace=wrap;" vertex="1" parent="1">
          <mxGeometry x="466" y="80.75" width="183" height="170" as="geometry" />
        </mxCell>
        <mxCell id="N2MT0N8GJBg1cZ225BkV-16" value="nginx 1.26.3" style="shape=module;align=left;spacingLeft=20;align=center;verticalAlign=top;whiteSpace=wrap;html=1;" vertex="1" parent="1">
          <mxGeometry x="501.5" y="110.75" width="100" height="122.5" as="geometry" />
        </mxCell>
        <mxCell id="N2MT0N8GJBg1cZ225BkV-17" value="&lt;font style=&quot;font-size: 7px;&quot;&gt;bundle.js&lt;/font&gt;" style="shape=note;size=10;whiteSpace=wrap;html=1;" vertex="1" parent="1">
          <mxGeometry x="520" y="177" width="33" height="40" as="geometry" />
        </mxCell>
        <mxCell id="N2MT0N8GJBg1cZ225BkV-18" value="&lt;span style=&quot;font-size: 7px;&quot;&gt;nginx.conf&lt;/span&gt;" style="shape=note;size=10;whiteSpace=wrap;html=1;" vertex="1" parent="1">
          <mxGeometry x="560" y="177" width="33" height="40" as="geometry" />
        </mxCell>
        <mxCell id="N2MT0N8GJBg1cZ225BkV-19" value="" style="endArrow=classic;startArrow=classic;html=1;rounded=0;exitX=0.522;exitY=0.023;exitDx=0;exitDy=0;exitPerimeter=0;entryX=0.46;entryY=0.995;entryDx=0;entryDy=0;entryPerimeter=0;labelBackgroundColor=default;" edge="1" parent="1">
          <mxGeometry width="50" height="50" relative="1" as="geometry">
            <mxPoint x="650" y="137.76" as="sourcePoint" />
            <mxPoint x="860" y="137.76" as="targetPoint" />
          </mxGeometry>
        </mxCell>
        <mxCell id="N2MT0N8GJBg1cZ225BkV-20" value="&lt;font style=&quot;font-size: 14px;&quot; face=&quot;Times New Roman&quot;&gt;WebSocket 13&lt;/font&gt;" style="text;html=1;align=center;verticalAlign=middle;whiteSpace=wrap;rounded=0;labelBackgroundColor=default;labelBorderColor=none;" vertex="1" parent="1">
          <mxGeometry x="720" y="123" width="103" height="30" as="geometry" />
        </mxCell>
        <mxCell id="N2MT0N8GJBg1cZ225BkV-21" value="" style="endArrow=classic;startArrow=classic;html=1;rounded=0;exitX=0.522;exitY=0.023;exitDx=0;exitDy=0;exitPerimeter=0;entryX=0.46;entryY=0.995;entryDx=0;entryDy=0;entryPerimeter=0;labelBackgroundColor=default;" edge="1" parent="1">
          <mxGeometry width="50" height="50" relative="1" as="geometry">
            <mxPoint x="650" y="186.26" as="sourcePoint" />
            <mxPoint x="860" y="186.26" as="targetPoint" />
          </mxGeometry>
        </mxCell>
        <mxCell id="N2MT0N8GJBg1cZ225BkV-22" value="&lt;font style=&quot;font-size: 14px;&quot; face=&quot;Times New Roman&quot;&gt;HTTP 1.1&lt;/font&gt;" style="text;html=1;align=center;verticalAlign=middle;whiteSpace=wrap;rounded=0;labelBackgroundColor=default;labelBorderColor=none;" vertex="1" parent="1">
          <mxGeometry x="720" y="171.5" width="103" height="30" as="geometry" />
        </mxCell>
      </root>
    </mxGraphModel>
  </diagram>
</mxfile>
